<?xml version="1.0" encoding="UTF-8"?>
<svg version="1.1" xmlns="http://www.w3.org/2000/svg" width="40" height="24">
<path d="M0 0 C13.2 0 26.4 0 40 0 C40 7.92 40 15.84 40 24 C26.8 24 13.6 24 0 24 C0 16.08 0 8.16 0 0 Z " fill="#FBE2E5" transform="translate(0,0)"/>
<path d="M0 0 C2.64 0 5.28 0 8 0 C8 7.92 8 15.84 8 24 C5.36 24 2.72 24 0 24 C0 16.08 0 8.16 0 0 Z " fill="#DD0B19" transform="translate(32,0)"/>
<path d="M0 0 C2.64 0 5.28 0 8 0 C8 7.92 8 15.84 8 24 C5.36 24 2.72 24 0 24 C0 16.08 0 8.16 0 0 Z " fill="#DC0C19" transform="translate(0,0)"/>
<path d="M0 0 C7.26 0 14.52 0 22 0 C22.37211538 12.52788462 22.37211538 12.52788462 20.48828125 14.91796875 C19.99714844 15.27503906 19.50601562 15.63210938 19 16 C19 13.69 19 11.38 19 9 C17.68 8.67 16.36 8.34 15 8 C15 6.68 15 5.36 15 4 C12.03 3.505 12.03 3.505 9 3 C9 3.66 9 4.32 9 5 C8.34 5 7.68 5 7 5 C7 6.32 7 7.64 7 9 C5.35 9 3.7 9 2 9 C2 10.65 2 12.3 2 14 C1.34 14 0.68 14 0 14 C0 9.38 0 4.76 0 0 Z " fill="#FEFCFC" transform="translate(9,0)"/>
<path d="M0 0 C0.66 0 1.32 0 2 0 C2 0.66 2 1.32 2 2 C2.66 2 3.32 2 4 2 C4.99 3.485 4.99 3.485 6 5 C6.99 5.33 7.98 5.66 9 6 C8.65447612 8.55687669 8.24912987 10.57501375 6.9375 12.8125 C3.78858766 14.74247853 0.5277243 14.64592135 -3 14 C-5.5 12.25 -5.5 12.25 -7 10 C-7 8.68 -7 7.36 -7 6 C-5.35 6 -3.7 6 -2 6 C-2 4.68 -2 3.36 -2 2 C-1.34 2 -0.68 2 0 2 C0 1.34 0 0.68 0 0 Z " fill="#D70F1C" transform="translate(19,4)"/>
<path d="M0 0 C0.33 0 0.66 0 1 0 C1 7.92 1 15.84 1 24 C-2.63 24 -6.26 24 -10 24 C-10 22.35 -10 20.7 -10 19 C-8.68 19 -7.36 19 -6 19 C-5.67 17.68 -5.34 16.36 -5 15 C-4.01 15 -3.02 15 -2 15 C-0.58365167 12.16730334 -0.6536995 9.52533562 -0.4375 6.375 C-0.35371094 5.18648438 -0.26992188 3.99796875 -0.18359375 2.7734375 C-0.12300781 1.85820312 -0.06242187 0.94296875 0 0 Z " fill="#FEEAEB" transform="translate(31,0)"/>
<path d="M0 0 C0.66 0 1.32 0 2 0 C2 0.66 2 1.32 2 2 C2.66 2 3.32 2 4 2 C4.99 3.485 4.99 3.485 6 5 C6.99 5.33 7.98 5.66 9 6 C8.67 6.99 8.34 7.98 8 9 C8 8.34 8 7.68 8 7 C7.071875 7 6.14375 7 5.1875 7 C1.45833333 7 -2.27083333 7 -6 7 C-5.67 8.32 -5.34 9.64 -5 11 C-5.66 10.67 -6.32 10.34 -7 10 C-7 8.68 -7 7.36 -7 6 C-5.35 6 -3.7 6 -2 6 C-2 4.68 -2 3.36 -2 2 C-1.34 2 -0.68 2 0 2 C0 1.34 0 0.68 0 0 Z " fill="#CD2F3A" transform="translate(19,4)"/>
</svg>
